<?xml version="1.0" encoding="UTF-8"?>
<svg id="Layer_2" data-name="Layer 2" xmlns="http://www.w3.org/2000/svg" viewBox="0 0 1037.5 212.6">
  <defs>
    <style>
      .cls-1 {
        fill: #dd5f26;
      }

      .cls-1, .cls-2, .cls-3, .cls-4, .cls-5, .cls-6, .cls-7, .cls-8, .cls-9 {
        stroke-width: 0px;
      }

      .cls-2 {
        fill: #9e9d9f;
      }

      .cls-3 {
        fill: #efbd1a;
      }

      .cls-4 {
        fill: #8e1942;
      }

      .cls-5 {
        fill: #5b9bd3;
      }

      .cls-6 {
        fill: #91bc3f;
      }

      .cls-7 {
        fill: #343333;
      }

      .cls-8 {
        fill: #5e9bd3;
      }

      .cls-9 {
        fill: #fff;
      }
    </style>
  </defs>
  <g id="Layer_1-2" data-name="Layer 1">
    <g>
      <g>
        <path class="cls-4" d="M201.32,135.5l-69.67,66.97c-14.46,13.9-37.44,13.44-51.34-1.02L10.13,128.43c-13.9-14.46-13.44-37.44,1.02-51.34L80.82,10.13c14.46-13.89,37.44-13.44,51.34,1.02l70.19,73.02c13.89,14.46,13.44,37.44-1.02,51.34"/>
        <g>
          <path class="cls-9" d="M130.44,71.33h-9.76c.02-2.06.06-4.13.04-6.19-.02-3.43.19-7.11-.33-10.51-.42-2.77-2.6-4.96-4.63-6.71-3.74-3.2-8.62-4.53-13.47-4.54-6.83-.02-17.36,3.14-18.21,11.27-.04.35-.05.7-.05,1.07,0,9.92,0,19.83,0,29.74v49.34s2.71,35.8,36.51,34.37v-62.88h9.9c9.65,0,17.48-7.83,17.48-17.48s-7.83-17.48-17.48-17.48Z"/>
          <path class="cls-2" d="M120.54,106.36v8.13s-35.73-7.99-35.3-8.13c.43-.14,35.3,0,35.3,0"/>
        </g>
      </g>
      <g>
        <polygon class="cls-6" points="269.63 108.02 284.11 99.65 269.63 91.29 269.63 108.02"/>
        <polygon class="cls-7" points="255.62 56.09 255.62 64.49 269.46 64.49 269.46 85.27 279.87 91.28 279.87 64.49 293.71 64.49 293.71 56.09 255.62 56.09"/>
        <path class="cls-1" d="M332.88,82.02c0,3.72,3.02,6.74,6.74,6.74s6.74-3.02,6.74-6.74-3.01-6.74-6.74-6.74-6.74,3.02-6.74,6.74"/>
        <polygon class="cls-7" points="347.95 56.09 317.82 56.09 317.82 108.09 347.95 108.09 347.95 99.61 328.24 99.61 328.24 92.99 328.24 85.85 328.24 77.59 328.24 73.69 328.24 64.57 347.95 64.57 347.95 56.09"/>
        <path class="cls-3" d="M416.05,93.59c-3.72,0-6.74,3.02-6.74,6.74s3.02,6.74,6.74,6.74,6.74-3.02,6.74-6.74-3.02-6.74-6.74-6.74"/>
        <path class="cls-7" d="M422.8,72.9c-1.74-5.25-4.79-9.37-9.15-12.35-4.37-2.97-9.45-4.46-15.25-4.46-4.96,0-9.44,1.13-13.43,3.39-3.99,2.26-7.14,5.41-9.45,9.45-2.3,4.04-3.46,8.62-3.46,13.73s1.16,9.67,3.46,13.68c2.31,4.02,5.46,7.15,9.45,9.41,3.99,2.26,8.47,3.39,13.43,3.39,2.01,0,3.94-.18,5.77-.54v-9.85c-1.76.72-3.71,1.09-5.84,1.09-3.02,0-5.71-.7-8.07-2.12-2.36-1.41-4.19-3.42-5.51-6.03-1.31-2.6-1.97-5.62-1.97-9.04s.66-6.5,1.97-9.08c1.31-2.57,3.15-4.57,5.51-5.98,2.36-1.41,5.05-2.12,8.07-2.12,2.83,0,5.32.62,7.48,1.86,2.16,1.24,3.83,3.1,5.02,5.58h11.98Z"/>
        <polygon class="cls-5" points="461.85 89.38 476.34 81.01 461.85 72.65 461.85 89.38"/>
        <polygon class="cls-7" points="457.32 56.09 446.9 56.09 446.9 108.01 457.32 108.01 457.32 85.92 457.41 85.92 457.41 77.44 457.32 77.44 457.32 56.09"/>
        <polygon class="cls-7" points="479.56 56.09 479.56 67.92 479.56 77.44 479.56 85.92 479.56 92.49 479.56 108.01 489.98 108.01 489.98 56.09 479.56 56.09"/>
        <path class="cls-1" d="M520.83,93.66c-3.72,0-6.74,3.02-6.74,6.74s3.02,6.74,6.74,6.74,6.74-3.02,6.74-6.74-3.02-6.74-6.74-6.74"/>
        <path class="cls-7" d="M549.42,85.92c-1.54-1.98-3.38-3.47-5.51-4.46-2.13-.99-4.88-1.98-8.26-2.97-2.48-.74-4.4-1.4-5.77-1.97-1.36-.57-2.5-1.31-3.42-2.23-.92-.92-1.38-2.07-1.38-3.46,0-1.98.61-3.5,1.82-4.54,1.21-1.04,2.84-1.56,4.87-1.56,2.33,0,4.2.58,5.61,1.75,1.41,1.16,2.17,2.64,2.27,4.43h11.46c-.35-4.66-2.19-8.3-5.54-10.9-3.34-2.6-7.7-3.9-13.06-3.9-3.57,0-6.74.61-9.52,1.82-2.78,1.22-4.94,2.97-6.47,5.25-1.54,2.28-2.31,4.96-2.31,8.03,0,3.28.75,5.89,2.27,7.85,1.51,1.96,3.32,3.42,5.43,4.39,2.11.97,4.85,1.95,8.22,2.94,2.48.7,4.43,1.33,5.84,1.9,1.41.57,2.59,1.35,3.53,2.35.94.99,1.41,2.26,1.41,3.79,0,1.89-.7,3.41-2.09,4.58-1.39,1.16-3.29,1.75-5.73,1.75-.33,0-.65-.01-.97-.04-.08,3.25-1.53,6.14-3.78,8.16,1.58.28,3.23.43,4.97.43,3.82,0,7.12-.71,9.89-2.12,2.78-1.41,4.88-3.31,6.32-5.69,1.44-2.38,2.16-4.96,2.16-7.74,0-3.22-.77-5.83-2.31-7.81"/>
        <polygon class="cls-3" points="575.84 108.02 590.32 99.65 575.84 91.29 575.84 108.02"/>
        <path class="cls-7" d="M611.59,63.9c-1.41-2.43-3.53-4.34-6.36-5.73-2.83-1.39-6.25-2.08-10.26-2.08h-19.12v28.84l10.41,6.01v-2.87h8.71c4.26,0,7.79-.74,10.6-2.23,2.8-1.49,4.86-3.45,6.17-5.88,1.31-2.43,1.97-5.03,1.97-7.81,0-3.07-.7-5.83-2.12-8.26M600.91,77.7c-1.39,1.31-3.52,1.97-6.4,1.97h-8.26v-15.1h8.26c5.65,0,8.48,2.53,8.48,7.59,0,2.38-.7,4.23-2.09,5.54"/>
        <path class="cls-1" d="M644.56,69.58c3.72,0,6.74-3.02,6.74-6.74s-3.02-6.74-6.74-6.74-6.74,3.02-6.74,6.74,3.02,6.74,6.74,6.74"/>
        <path class="cls-7" d="M639.35,73.77v34.92h10.42v-34.92c-1.53.89-3.31,1.41-5.21,1.41s-3.68-.52-5.21-1.41"/>
        <polygon class="cls-3" points="675.41 108.02 689.89 99.65 675.41 91.29 675.41 108.02"/>
        <path class="cls-7" d="M701.82,86.96c3.91-1.04,6.86-2.94,8.85-5.69,1.98-2.75,2.97-5.84,2.97-9.27,0-2.97-.7-5.66-2.12-8.07-1.42-2.4-3.54-4.32-6.36-5.73-2.83-1.41-6.25-2.12-10.26-2.12h-19.49v29.28l10.42,6.01v-3.6h4.91l11.46,20.24h12.05l-12.42-21.06ZM694.53,79.97h-8.7v-15.25h8.7c2.83,0,4.94.66,6.32,1.97,1.39,1.32,2.08,3.16,2.08,5.54s-.7,4.33-2.08,5.69c-1.39,1.36-3.5,2.04-6.32,2.04"/>
        <polygon class="cls-7" points="769.15 56.09 757.02 56.09 738.35 108.09 749.29 108.09 751.22 102.5 755.56 89.86 755.54 89.86 763.05 68.14 770.56 89.86 770.54 89.86 774.43 101.21 776.81 108.09 787.82 108.09 769.15 56.09"/>
        <path class="cls-1" d="M763.09,94.6c-3.72,0-6.74,3.02-6.74,6.74s3.02,6.74,6.74,6.74,6.74-3.02,6.74-6.74-3.02-6.74-6.74-6.74"/>
        <polygon class="cls-6" points="825.94 108.02 840.42 99.65 825.94 91.29 825.94 108.02"/>
        <polygon class="cls-7" points="811.93 56.09 811.93 64.49 825.77 64.49 825.77 85.27 836.19 91.28 836.19 64.49 850.02 64.49 850.02 56.09 811.93 56.09"/>
        <path class="cls-1" d="M880.87,69.58c3.72,0,6.74-3.02,6.74-6.74s-3.02-6.74-6.74-6.74-6.74,3.02-6.74,6.74,3.02,6.74,6.74,6.74"/>
        <path class="cls-7" d="M875.67,73.77v34.92h10.42v-34.92c-1.53.89-3.31,1.41-5.21,1.41s-3.68-.52-5.21-1.41"/>
        <path class="cls-7" d="M961.38,69c-2.36-4.04-5.56-7.2-9.6-9.48-4.04-2.28-8.52-3.43-13.43-3.43s-9.33,1.14-13.39,3.43c-4.07,2.28-7.29,5.44-9.67,9.48-2.38,4.04-3.57,8.59-3.57,13.65s1.19,9.68,3.57,13.73c2.38,4.04,5.61,7.2,9.67,9.48,4.06,2.28,8.53,3.43,13.39,3.43s9.32-1.14,13.39-3.43c4.07-2.28,7.28-5.44,9.64-9.48,2.36-4.04,3.53-8.62,3.53-13.73s-1.17-9.61-3.53-13.65M952.19,91.8c-1.34,2.63-3.2,4.65-5.58,6.06-2.38,1.42-5.13,2.12-8.25,2.12s-5.89-.7-8.3-2.12c-2.41-1.41-4.28-3.43-5.61-6.06-1.34-2.63-2.01-5.68-2.01-9.15s.67-6.51,2.01-9.11c1.34-2.6,3.2-4.6,5.61-5.99,2.4-1.39,5.17-2.09,8.3-2.09s5.88.7,8.25,2.09c2.38,1.39,4.24,3.39,5.58,5.99,1.34,2.6,2.01,5.64,2.01,9.11s-.67,6.52-2.01,9.15"/>
        <path class="cls-8" d="M938.32,75.94c-3.72,0-6.74,3.02-6.74,6.74s3.02,6.74,6.74,6.74,6.74-3.02,6.74-6.74-3.02-6.74-6.74-6.74"/>
        <polygon class="cls-6" points="1023.01 56.17 1023.01 72.89 1037.5 64.53 1023.01 56.17"/>
        <polygon class="cls-7" points="1023.02 91.8 999.44 56.09 989.03 56.09 989.03 108.09 999.44 108.09 999.44 72.46 1023.02 108.09 1033.44 108.09 1033.44 73.45 1023.02 79.47 1023.02 91.8"/>
        <g>
          <path class="cls-7" d="M272.16,155.85c0,.08-.02.15-.06.21-.04.06-.11.1-.21.14s-.23.06-.39.09-.36.04-.61.04-.44-.01-.6-.04c-.17-.02-.3-.05-.4-.09-.1-.03-.17-.08-.21-.14-.04-.06-.06-.13-.06-.21v-18.27c0-.08.02-.15.07-.21s.12-.1.22-.14c.1-.04.23-.07.4-.09s.36-.04.58-.04c.25,0,.45.01.61.04s.29.05.39.09c.1.03.17.08.21.14s.06.13.06.21v18.27Z"/>
          <path class="cls-7" d="M300.25,139.78c0,.19-.01.35-.03.49-.02.14-.05.26-.09.35-.04.09-.09.16-.15.2-.06.04-.12.06-.19.06-.12,0-.31-.1-.59-.28-.27-.19-.64-.4-1.1-.62s-1.01-.43-1.65-.62c-.64-.18-1.41-.28-2.29-.28-1.05,0-1.99.19-2.83.57-.83.38-1.54.91-2.12,1.59s-1.02,1.48-1.33,2.41c-.31.94-.46,1.94-.46,3.03,0,1.22.17,2.3.51,3.24.34.94.81,1.73,1.41,2.38.6.65,1.31,1.14,2.14,1.47.83.33,1.74.5,2.73.5.59,0,1.18-.07,1.79-.21.6-.14,1.16-.36,1.68-.64v-5.55h-4.41c-.17,0-.29-.08-.37-.25-.09-.17-.13-.43-.13-.78,0-.19.01-.35.03-.48.02-.13.05-.24.1-.32.04-.08.1-.14.15-.18.06-.04.13-.06.22-.06h6.05c.11,0,.22.02.32.06.11.04.21.1.29.18.09.08.16.18.21.32.05.14.07.3.07.47v7.25c0,.25-.04.47-.13.66-.09.19-.27.35-.56.49s-.65.3-1.1.46-.92.31-1.4.43c-.48.12-.96.2-1.46.26-.49.06-.98.09-1.46.09-1.47,0-2.79-.23-3.94-.69-1.16-.46-2.14-1.11-2.94-1.95-.8-.84-1.41-1.85-1.83-3.03-.42-1.18-.63-2.49-.63-3.95s.23-2.88.68-4.1c.46-1.23,1.1-2.27,1.93-3.13.83-.86,1.82-1.53,2.99-2.01,1.16-.48,2.45-.72,3.86-.72.73,0,1.41.06,2.05.19.64.13,1.2.28,1.7.45s.91.36,1.25.56c.34.2.57.37.7.49.13.13.22.27.27.44.05.17.07.41.07.72Z"/>
          <path class="cls-7" d="M328.09,155.19c0,.2-.03.36-.1.5s-.15.25-.26.34c-.11.09-.23.15-.36.19-.13.04-.26.06-.4.06h-.84c-.26,0-.49-.03-.69-.08s-.39-.15-.56-.3c-.18-.14-.36-.33-.53-.58s-.37-.56-.57-.94l-5.81-10.83c-.3-.56-.61-1.14-.92-1.76-.31-.61-.59-1.21-.86-1.79h-.03c.02.71.03,1.43.04,2.17.01.73.01,1.46.01,2.19v11.49c0,.07-.02.13-.06.2-.04.06-.11.11-.21.15-.1.03-.23.06-.39.09s-.37.04-.61.04-.45-.01-.61-.04-.29-.05-.38-.09-.16-.08-.2-.15c-.04-.07-.06-.13-.06-.2v-17.56c0-.4.11-.67.33-.84s.47-.25.73-.25h1.25c.29,0,.54.02.74.07.2.05.38.13.53.25s.31.27.46.47c.15.2.3.45.46.76l4.47,8.36c.27.51.54,1.01.8,1.49s.5.96.74,1.43c.24.47.47.94.7,1.39.23.46.46.91.69,1.38h.01c-.02-.77-.03-1.58-.04-2.42,0-.84,0-1.65,0-2.42v-10.33c0-.07.02-.13.06-.19s.11-.11.21-.15c.1-.04.23-.07.39-.1s.37-.03.63-.03c.23,0,.42,0,.59.03s.3.05.39.1c.09.05.16.1.2.15s.06.12.06.19v17.57Z"/>
          <path class="cls-7" d="M344.41,155.85c0,.08-.02.15-.06.21-.04.06-.11.1-.21.14s-.23.06-.39.09-.36.04-.61.04-.44-.01-.6-.04c-.17-.02-.3-.05-.4-.09-.1-.03-.17-.08-.21-.14-.04-.06-.06-.13-.06-.21v-18.27c0-.08.02-.15.07-.21s.12-.1.22-.14c.1-.04.23-.07.4-.09s.36-.04.58-.04c.25,0,.45.01.61.04s.29.05.39.09c.1.03.17.08.21.14s.06.13.06.21v18.27Z"/>
          <path class="cls-7" d="M370.14,138.28c0,.18-.01.35-.03.48-.02.14-.05.25-.1.33s-.1.15-.16.18c-.06.04-.14.06-.21.06h-5.35v16.51c0,.08-.02.15-.06.21-.04.06-.11.1-.21.14s-.23.06-.39.09-.37.04-.61.04-.44-.01-.6-.04-.3-.05-.4-.09-.17-.08-.21-.14c-.04-.06-.06-.13-.06-.21v-16.51h-5.35c-.08,0-.15-.02-.21-.06-.06-.04-.11-.1-.15-.18s-.07-.2-.1-.33-.04-.3-.04-.48.01-.35.04-.49.06-.26.1-.35.09-.15.15-.19c.06-.04.14-.06.21-.06h13.24c.08,0,.15.02.21.06.06.04.12.1.16.19s.07.2.1.35c.02.14.03.31.03.49Z"/>
          <path class="cls-7" d="M392.22,155.19c0,.17-.01.33-.03.46-.02.13-.05.25-.1.33-.05.09-.1.15-.17.19-.06.04-.14.06-.21.06h-9.13c-.23,0-.44-.07-.64-.23-.2-.15-.3-.42-.3-.8v-16.98c0-.38.1-.65.3-.8.2-.15.41-.23.64-.23h9.03c.08,0,.15.02.21.06.06.04.12.1.16.19.04.09.07.2.1.33.02.13.04.3.04.49,0,.17-.01.33-.04.46-.02.13-.06.24-.1.32-.04.08-.09.15-.16.19-.06.04-.14.06-.21.06h-7.44v5.97h6.38c.08,0,.15.02.21.07.06.05.12.1.16.18.04.08.07.19.1.32.02.14.03.3.03.49,0,.17-.01.33-.03.46-.02.12-.05.23-.1.31-.05.08-.1.13-.16.17-.06.03-.14.05-.21.05h-6.38v6.81h7.55c.08,0,.15.02.21.06.06.04.12.1.17.18.05.08.08.19.1.32.02.13.03.3.03.49Z"/>
          <path class="cls-7" d="M472.95,148.8c0,.38-.05.65-.13.79-.09.15-.22.22-.38.22h-6.15c-.18,0-.31-.07-.4-.22-.09-.15-.13-.42-.13-.79s.04-.63.13-.78c.09-.15.22-.22.4-.22h6.15c.08,0,.15.01.21.04.06.03.12.09.16.17.05.08.08.19.1.32s.04.28.04.47Z"/>
          <path class="cls-7" d="M549.96,155.85c0,.08-.02.15-.06.21-.04.06-.11.1-.21.14-.1.03-.22.06-.39.09s-.37.04-.61.04-.44-.01-.6-.04-.3-.05-.4-.09c-.1-.03-.17-.08-.2-.14-.04-.06-.06-.13-.06-.21v-18.27c0-.08.02-.15.06-.21.05-.06.12-.1.22-.14.1-.04.23-.07.4-.09s.36-.04.58-.04c.25,0,.45.01.61.04s.29.05.39.09c.1.03.17.08.21.14.04.06.06.13.06.21v18.27Z"/>
          <path class="cls-7" d="M578.14,155.19c0,.2-.03.36-.1.5s-.15.25-.26.34c-.11.09-.22.15-.36.19-.13.04-.27.06-.4.06h-.84c-.26,0-.49-.03-.69-.08-.2-.05-.39-.15-.56-.3-.18-.14-.36-.33-.54-.58-.17-.25-.37-.56-.56-.94l-5.81-10.83c-.3-.56-.61-1.14-.92-1.76-.31-.61-.59-1.21-.86-1.79h-.03c.02.71.03,1.43.05,2.17,0,.73.01,1.46.01,2.19v11.49c0,.07-.02.13-.06.2-.04.06-.11.11-.21.15-.1.03-.23.06-.39.09-.16.02-.36.04-.61.04s-.45-.01-.62-.04c-.16-.02-.29-.05-.38-.09s-.16-.08-.2-.15c-.04-.07-.06-.13-.06-.2v-17.56c0-.4.11-.67.33-.84.22-.17.47-.25.73-.25h1.25c.29,0,.54.02.74.07.2.05.37.13.53.25.15.11.31.27.45.47.15.2.3.45.46.76l4.47,8.36c.27.51.54,1.01.79,1.49.26.49.5.96.74,1.43.24.47.47.94.7,1.39.23.46.47.91.69,1.38h.02c-.02-.77-.03-1.58-.04-2.42,0-.84,0-1.65,0-2.42v-10.33c0-.07.02-.13.06-.19s.11-.11.21-.15c.1-.04.22-.07.39-.1s.37-.03.63-.03c.23,0,.42,0,.59.03s.3.05.39.1c.1.05.16.1.2.15s.06.12.06.19v17.57Z"/>
          <path class="cls-7" d="M606.33,155.19c0,.2-.03.36-.1.5s-.15.25-.26.34c-.11.09-.22.15-.36.19-.13.04-.27.06-.4.06h-.84c-.26,0-.49-.03-.69-.08-.2-.05-.39-.15-.56-.3-.18-.14-.36-.33-.54-.58-.17-.25-.37-.56-.56-.94l-5.81-10.83c-.3-.56-.61-1.14-.92-1.76-.31-.61-.59-1.21-.86-1.79h-.03c.02.71.03,1.43.05,2.17,0,.73.01,1.46.01,2.19v11.49c0,.07-.02.13-.06.2-.04.06-.11.11-.21.15-.1.03-.23.06-.39.09-.16.02-.36.04-.61.04s-.45-.01-.62-.04c-.16-.02-.29-.05-.38-.09s-.16-.08-.2-.15c-.04-.07-.06-.13-.06-.2v-17.56c0-.4.11-.67.33-.84.22-.17.47-.25.73-.25h1.25c.29,0,.54.02.74.07.2.05.37.13.53.25.15.11.31.27.45.47s.3.45.46.76l4.47,8.36c.27.51.54,1.01.79,1.49.26.49.5.96.74,1.43s.47.94.7,1.39c.23.46.47.91.69,1.38h.02c-.02-.77-.03-1.58-.04-2.42,0-.84,0-1.65,0-2.42v-10.33c0-.07.02-.13.06-.19s.11-.11.21-.15c.1-.04.22-.07.39-.1s.37-.03.63-.03c.23,0,.42,0,.59.03s.3.05.39.1c.1.05.16.1.2.15s.06.12.06.19v17.57Z"/>
          <path class="cls-7" d="M636.08,146.49c0,1.54-.18,2.93-.54,4.16s-.91,2.29-1.63,3.16c-.72.87-1.63,1.53-2.72,2-1.09.47-2.36.7-3.81.7s-2.67-.21-3.72-.64c-1.04-.42-1.9-1.04-2.59-1.86s-1.19-1.83-1.52-3.03c-.34-1.21-.5-2.59-.5-4.16s.18-2.86.54-4.09c.36-1.23.91-2.27,1.63-3.13.72-.86,1.63-1.52,2.72-1.98,1.09-.47,2.36-.7,3.81-.7s2.62.21,3.66.64c1.04.42,1.9,1.04,2.59,1.85.69.81,1.21,1.81,1.55,3,.34,1.19.51,2.56.51,4.1ZM633.4,146.67c0-1.08-.1-2.08-.29-3.01-.19-.93-.51-1.73-.96-2.42-.44-.68-1.04-1.21-1.78-1.59-.74-.38-1.67-.57-2.76-.57s-2.02.2-2.77.62-1.35.96-1.81,1.65c-.47.69-.8,1.49-1,2.41-.2.92-.3,1.88-.3,2.89,0,1.12.1,2.15.28,3.09.19.94.5,1.75.94,2.44.44.68,1.03,1.21,1.77,1.59s1.67.57,2.79.57,2.04-.2,2.79-.62c.76-.41,1.36-.96,1.82-1.67.46-.7.79-1.51.99-2.44.2-.92.3-1.9.3-2.93Z"/>
          <path class="cls-7" d="M656.51,155.79c-.04.11-.09.2-.16.27-.07.07-.16.12-.29.16-.12.04-.28.07-.47.08-.19.01-.43.02-.72.02-.22,0-.4,0-.57,0-.16,0-.3-.02-.42-.03-.12-.02-.22-.04-.3-.07s-.15-.06-.22-.1c-.06-.04-.1-.09-.14-.14-.04-.05-.07-.12-.1-.2l-6.22-17.68c-.08-.22-.12-.39-.12-.52s.04-.23.12-.3c.09-.07.23-.11.43-.13.2-.02.46-.03.79-.03.27,0,.49,0,.65.02.16.01.29.04.37.08.09.04.16.09.2.15.05.07.09.15.12.25l5.46,16.02h.01l5.31-15.99c.03-.11.06-.2.1-.27.04-.07.11-.12.21-.16.1-.04.24-.07.41-.08.18-.02.41-.02.71-.02s.54.01.72.04c.18.02.3.07.36.14.06.07.09.17.07.3-.02.13-.06.31-.14.52l-6.21,17.68Z"/>
          <path class="cls-7" d="M688.9,155.33c.08.22.12.39.12.52s-.03.23-.11.3c-.07.07-.21.11-.39.13-.18.02-.42.03-.73.03s-.55,0-.73-.02c-.18-.02-.32-.04-.41-.07-.09-.03-.16-.08-.2-.14-.05-.06-.09-.13-.12-.22l-1.63-4.64h-7.91l-1.56,4.57c-.03.09-.07.17-.12.23-.05.07-.12.12-.21.16-.1.05-.22.07-.4.1-.17.02-.4.03-.67.03s-.52-.01-.7-.04c-.18-.02-.31-.07-.38-.14-.07-.07-.11-.17-.1-.3,0-.13.05-.3.12-.52l6.38-17.68c.04-.11.09-.2.15-.27.07-.07.16-.12.28-.16.12-.04.28-.07.47-.08.19-.02.43-.02.73-.02.31,0,.57,0,.78.02.21.01.37.04.5.08.12.04.22.1.3.17.07.07.12.16.16.27l6.39,17.68ZM680.7,139.72h-.01l-3.28,9.49h6.62l-3.33-9.49Z"/>
          <path class="cls-7" d="M712.74,138.28c0,.18,0,.35-.03.48s-.05.25-.1.33c-.05.08-.1.15-.16.18-.06.04-.14.06-.21.06h-5.36v16.51c0,.08-.02.15-.06.21-.04.06-.11.1-.21.14s-.23.06-.39.09-.37.04-.61.04-.44-.01-.61-.04c-.17-.02-.3-.05-.4-.09-.1-.03-.17-.08-.21-.14-.04-.06-.06-.13-.06-.21v-16.51h-5.36c-.08,0-.15-.02-.21-.06-.06-.04-.12-.1-.15-.18-.04-.08-.07-.2-.1-.33s-.04-.3-.04-.48.01-.35.04-.49.05-.26.1-.35c.04-.09.09-.15.15-.19.06-.04.13-.06.21-.06h13.24c.07,0,.15.02.21.06.06.04.12.1.16.19.04.09.07.2.1.35s.03.31.03.49Z"/>
          <path class="cls-7" d="M734.83,155.19c0,.17,0,.33-.03.46s-.05.25-.1.33-.1.15-.17.19c-.06.04-.13.06-.21.06h-9.13c-.22,0-.44-.07-.64-.23-.2-.15-.3-.42-.3-.8v-16.98c0-.38.1-.65.3-.8.2-.15.42-.23.64-.23h9.03c.08,0,.15.02.22.06.06.04.11.1.15.19.04.09.07.2.1.33.02.13.04.3.04.49,0,.17-.01.33-.04.46-.02.13-.06.24-.1.32-.04.08-.09.15-.15.19-.07.04-.14.06-.22.06h-7.44v5.97h6.39c.07,0,.15.02.21.07s.12.1.16.18c.04.08.07.19.1.32s.03.3.03.49c0,.17,0,.33-.03.46-.02.12-.05.23-.1.31-.05.08-.1.13-.16.17-.06.03-.14.05-.21.05h-6.39v6.81h7.55c.08,0,.15.02.21.06.07.04.12.1.17.18s.08.19.1.32.03.3.03.49Z"/>
          <path class="cls-7" d="M815.55,148.8c0,.38-.04.65-.13.79-.09.15-.21.22-.38.22h-6.15c-.17,0-.31-.07-.4-.22-.09-.15-.13-.42-.13-.79s.05-.63.13-.78c.09-.15.22-.22.4-.22h6.15c.08,0,.15.01.22.04.06.03.12.09.16.17.04.08.07.19.1.32s.04.28.04.47Z"/>
          <path class="cls-7" d="M892.56,155.85c0,.08-.02.15-.06.21-.04.06-.11.1-.21.14-.1.03-.22.06-.39.09s-.37.04-.61.04-.44-.01-.6-.04-.3-.05-.4-.09c-.1-.03-.17-.08-.2-.14-.04-.06-.06-.13-.06-.21v-18.27c0-.08.02-.15.06-.21.05-.06.12-.1.22-.14.1-.04.23-.07.4-.09s.36-.04.58-.04c.25,0,.45.01.61.04s.29.05.39.09c.1.03.17.08.21.14.04.06.06.13.06.21v18.27Z"/>
          <path class="cls-7" d="M920.75,155.19c0,.2-.03.36-.1.5s-.15.25-.26.34c-.11.09-.22.15-.36.19-.13.04-.27.06-.4.06h-.84c-.26,0-.49-.03-.69-.08-.2-.05-.39-.15-.56-.3-.18-.14-.36-.33-.54-.58-.17-.25-.37-.56-.56-.94l-5.81-10.83c-.3-.56-.61-1.14-.92-1.76-.31-.61-.59-1.21-.86-1.79h-.03c.02.71.03,1.43.05,2.17,0,.73.01,1.46.01,2.19v11.49c0,.07-.02.13-.06.2-.04.06-.11.11-.21.15-.1.03-.23.06-.39.09-.16.02-.36.04-.61.04s-.45-.01-.62-.04c-.16-.02-.29-.05-.38-.09s-.16-.08-.2-.15c-.04-.07-.06-.13-.06-.2v-17.56c0-.4.11-.67.33-.84.22-.17.47-.25.73-.25h1.25c.29,0,.54.02.74.07.2.05.37.13.53.25.15.11.31.27.45.47s.3.45.46.76l4.47,8.36c.27.51.54,1.01.79,1.49.26.49.5.96.74,1.43.24.47.47.94.7,1.39.23.46.47.91.69,1.38h.02c-.02-.77-.03-1.58-.04-2.42,0-.84,0-1.65,0-2.42v-10.33c0-.07.02-.13.06-.19s.11-.11.21-.15c.1-.04.22-.07.39-.1s.37-.03.63-.03c.23,0,.42,0,.59.03s.3.05.39.1c.1.05.16.1.2.15s.06.12.06.19v17.57Z"/>
          <path class="cls-7" d="M944.77,150.89c0,.89-.17,1.68-.49,2.38-.33.69-.79,1.28-1.37,1.77s-1.27.85-2.06,1.1c-.79.25-1.64.37-2.55.37-.64,0-1.23-.05-1.78-.16-.54-.11-1.03-.24-1.46-.4-.42-.16-.79-.32-1.07-.49-.29-.17-.49-.31-.6-.43-.11-.12-.2-.27-.25-.44-.05-.18-.08-.42-.08-.73,0-.21.01-.4.03-.54.02-.14.05-.26.09-.35.04-.09.09-.15.15-.18s.13-.05.2-.05c.14,0,.33.09.58.25s.57.35.96.54c.39.2.86.38,1.42.55.56.17,1.19.26,1.92.26.55,0,1.05-.07,1.51-.22.45-.15.85-.35,1.18-.62.33-.27.58-.6.76-.99.17-.39.27-.84.27-1.34,0-.54-.12-1-.37-1.38s-.57-.72-.97-1.01c-.4-.29-.86-.55-1.38-.79-.52-.24-1.04-.49-1.58-.74-.54-.25-1.06-.53-1.58-.83-.51-.3-.96-.66-1.37-1.07-.4-.41-.73-.89-.98-1.45-.25-.55-.38-1.22-.38-1.99s.15-1.51.44-2.12c.29-.62.69-1.15,1.21-1.57.52-.42,1.13-.74,1.84-.96s1.48-.33,2.3-.33c.42,0,.84.04,1.27.11s.83.17,1.21.3c.38.12.72.26,1.01.41.3.15.49.27.58.37s.15.17.18.22.05.12.07.21.03.18.05.3c0,.12.01.27.01.46s0,.33-.02.47c-.02.14-.04.25-.07.35-.03.1-.07.16-.12.21s-.12.07-.18.07c-.11,0-.28-.07-.51-.21-.23-.14-.52-.29-.85-.46s-.73-.33-1.19-.47c-.45-.14-.97-.22-1.53-.22-.53,0-.99.07-1.38.22s-.72.33-.97.57c-.26.24-.45.52-.57.84-.13.32-.19.67-.19,1.03,0,.53.12.99.37,1.37s.57.72.98,1.01c.41.3.87.57,1.39.81.52.25,1.05.49,1.59.74.54.25,1.07.52,1.59.82s.98.65,1.39,1.06.74.89.99,1.44c.25.56.38,1.21.38,1.97Z"/>
          <path class="cls-7" d="M968.82,142.77c0,.95-.15,1.81-.47,2.57-.31.77-.76,1.42-1.35,1.95-.58.54-1.3.96-2.15,1.25s-1.86.44-3.04.44h-2.16v6.86c0,.08-.02.15-.07.21-.04.06-.11.1-.2.14-.1.03-.22.06-.38.09s-.37.04-.61.04-.45-.01-.61-.04-.29-.05-.39-.09c-.1-.03-.17-.08-.2-.14-.04-.06-.06-.13-.06-.21v-17.56c0-.4.1-.67.31-.84.2-.17.44-.25.69-.25h4.07c.41,0,.81.02,1.19.05s.82.11,1.34.22,1.04.32,1.58.63c.53.31.99.69,1.36,1.14.37.45.66.97.86,1.56.2.59.3,1.25.3,1.97ZM966.16,142.97c0-.77-.15-1.42-.43-1.94-.29-.52-.65-.91-1.08-1.16-.42-.26-.86-.42-1.32-.49-.46-.07-.9-.1-1.33-.1h-2.34v7.63h2.28c.76,0,1.4-.1,1.9-.29.5-.2.93-.47,1.27-.82.34-.35.6-.77.78-1.25.18-.49.27-1.01.27-1.58Z"/>
          <path class="cls-7" d="M983.96,155.85c0,.08-.02.15-.06.21-.04.06-.11.1-.21.14-.1.03-.22.06-.39.09s-.37.04-.61.04-.44-.01-.6-.04-.3-.05-.4-.09c-.1-.03-.17-.08-.2-.14-.04-.06-.06-.13-.06-.21v-18.27c0-.08.02-.15.06-.21.05-.06.12-.1.22-.14.1-.04.23-.07.4-.09s.36-.04.58-.04c.25,0,.45.01.61.04s.29.05.39.09c.1.03.17.08.21.14.04.06.06.13.06.21v18.27Z"/>
          <path class="cls-7" d="M1010.45,155.85c0,.08-.02.15-.05.21-.03.06-.09.11-.19.15-.1.04-.23.07-.41.09-.17.02-.41.03-.71.03-.25,0-.46,0-.62-.03s-.29-.05-.39-.1c-.1-.04-.17-.1-.23-.18s-.1-.18-.14-.3l-1.75-4.49c-.21-.51-.42-.98-.64-1.41-.22-.42-.48-.79-.79-1.1-.31-.31-.67-.55-1.08-.72-.41-.17-.91-.25-1.48-.25h-1.69v8.1c0,.08-.02.15-.07.21-.04.06-.11.1-.2.14-.1.03-.22.06-.38.09s-.37.04-.61.04-.45-.01-.61-.04-.29-.05-.39-.09c-.1-.03-.17-.08-.2-.14-.04-.06-.06-.13-.06-.21v-17.63c0-.38.1-.65.3-.8.2-.15.42-.23.64-.23h4.05c.48,0,.88.01,1.2.04.32.02.61.05.86.08.74.13,1.38.33,1.95.6.57.27,1.04.62,1.42,1.04.38.42.67.91.86,1.45.19.54.29,1.14.29,1.8s-.08,1.21-.25,1.71c-.17.51-.42.95-.74,1.34-.32.39-.71.72-1.16,1.01-.45.28-.96.52-1.51.72.31.14.6.31.85.52.25.21.49.46.72.76s.43.63.62,1.01c.2.38.39.81.59,1.29l1.7,4.2c.14.35.22.6.27.74.04.15.06.25.06.33ZM1006.64,142.48c0-.74-.17-1.38-.5-1.89s-.89-.89-1.68-1.11c-.25-.07-.52-.12-.83-.15s-.72-.05-1.21-.05h-2.13v6.42h2.47c.67,0,1.24-.08,1.73-.25.49-.16.89-.39,1.21-.67.32-.29.56-.63.72-1.02.15-.4.23-.82.23-1.28Z"/>
          <path class="cls-7" d="M1033.44,155.19c0,.17,0,.33-.03.46s-.05.25-.1.33-.1.15-.17.19c-.06.04-.13.06-.21.06h-9.13c-.22,0-.44-.07-.64-.23-.2-.15-.3-.42-.3-.8v-16.98c0-.38.1-.65.3-.8.2-.15.42-.23.64-.23h9.03c.08,0,.15.02.22.06.06.04.11.1.15.19.04.09.07.2.1.33.02.13.04.3.04.49,0,.17-.01.33-.04.46-.02.13-.06.24-.1.32-.04.08-.09.15-.15.19-.07.04-.14.06-.22.06h-7.44v5.97h6.39c.07,0,.15.02.21.07s.12.1.16.18c.04.08.07.19.1.32s.03.3.03.49c0,.17,0,.33-.03.46-.02.12-.05.23-.1.31-.05.08-.1.13-.16.17-.06.03-.14.05-.21.05h-6.39v6.81h7.55c.08,0,.15.02.21.06.07.04.12.1.17.18s.08.19.1.32.03.3.03.49Z"/>
        </g>
      </g>
    </g>
  </g>
</svg>